<?xml version="1.0" standalone="no"?><!DOCTYPE svg PUBLIC "-//W3C//DTD SVG 1.1//EN" "http://www.w3.org/Graphics/SVG/1.1/DTD/svg11.dtd"><svg t="1605683627183" class="icon" viewBox="0 0 1024 1024" version="1.1" xmlns="http://www.w3.org/2000/svg" p-id="832" xmlns:xlink="http://www.w3.org/1999/xlink" width="128" height="128"><defs><style type="text/css"></style></defs><path d="M921.4 337.5C899 284.5 866.9 236.9 826 196c-40.9-40.9-88.5-73-141.5-95.4-54.9-23.2-113.2-35-173.3-35-60.1 0-118.4 11.8-173.3 35-53 22.4-100.6 54.5-141.5 95.4-40.9 40.9-73 88.5-95.4 141.5-23.2 54.9-35 113.2-35 173.3s11.8 118.4 35 173.3c22.4 53 54.5 100.6 95.4 141.5 40.9 40.9 88.5 73 141.5 95.4 54.9 23.2 113.2 35 173.3 35 60.1 0 118.4-11.8 173.3-35 53-22.4 100.6-54.5 141.5-95.4s73-88.5 95.4-141.5c23.2-54.9 35-113.2 35-173.3s-11.7-118.4-35-173.3zM780.8 780.4C708.8 852.4 613 892 511.2 892c-101.8 0-197.6-39.7-269.6-111.7-72-72-111.7-167.7-111.7-269.6s39.7-197.6 111.7-269.6c72-72 167.7-111.7 269.6-111.7 101.8 0 197.6 39.7 269.6 111.7 72 72 111.7 167.7 111.7 269.6s-39.7 197.7-111.7 269.7z" p-id="833"></path><path d="M506.3 288.8c-69.3 0-125.7 56.4-125.7 125.7h64c0-34 27.7-61.7 61.7-61.7 16.5 0 32 6.4 43.6 18.1 11.7 11.7 18.1 27.2 18.1 43.6 0 23.4-12.9 44.5-33.8 55.1-37 18.8-60 56-60 97.1v30.5h64v-30.5c0-16.8 9.6-32.2 25-40C605.7 505 632 462.1 632 414.5c0-33.6-13.1-65.1-36.8-88.9-23.8-23.8-55.4-36.8-88.9-36.8z" p-id="834"></path><path d="M489.251986 720.517479a44.1 44.1 0 1 0 33.752679-81.486175 44.1 44.1 0 1 0-33.752679 81.486175Z" p-id="835"></path></svg>